# xmcd
#
# Track frame offsets:
#	150
#	17385
#	33315
#	47919
#	64205
#	76658
#	94118
#	110947
#	124817
#	137273
#	150497
#	167445
#	183748
#	199697
#	216413
#
# Disc length: 3138 seconds
#
# Revision: 0
# Processed by: cddbd v1.5.1PL0 Copyright (c) Steve Scherf et al.
# Submitted via: dBpowerAMP V4.0
#
DISCID=c60c400f
DTITLE=Tony Portlock - Winding Boy
DYEAR=1900
DGENRE=Blues
TTITLE0=Winding Boy
TTITLE1=Hewllet
TTITLE2=St James Infirmary
TTITLE3=The Cuckoo
TTITLE4=Victory Rag
TTITLE5=Careless Love
TTITLE6=William Taylor
TTITLE7=Deep River Blues
TTITLE8=Gypsy Davey
TTITLE9=Mississippi Blues
TTITLE10=Willy Moore
TTITLE11=Cocaine
TTITLE12=Scarlet Town
TTITLE13=Betty and Dupree
TTITLE14=Blind Mary - Blarney Pilgrim
EXTD=
EXTT0=
EXTT1=
EXTT2=
EXTT3=
EXTT4=
EXTT5=
EXTT6=
EXTT7=
EXTT8=
EXTT9=
EXTT10=
EXTT11=
EXTT12=
EXTT13=
EXTT14=
PLAYORDER=
